<svg aria-hidden="true" style="position: absolute; width: 0; height: 0; overflow: hidden;" version="1.1" xmlns="http://www.w3.org/2000/svg" xmlns:xlink="http://www.w3.org/1999/xlink">
<defs>
<symbol id="icon-logo-up" viewBox="0 0 53 32">
<path d="M34.007 16.079l0.974 2.248c0.18 0.414 0.676 0.61 1.108 0.438 0.433-0.17 0.639-0.645 0.459-1.059l-0.974-2.247-1.568 0.62z"></path>
<path d="M34.657 17.578v0z"></path>
<path d="M31.952 11.335v0z"></path>
<path d="M33.158 6.778c0 1.194-1.012 2.163-2.261 2.163-1.25 0-2.262-0.968-2.262-2.163s1.013-2.162 2.262-2.162c1.248 0 2.261 0.968 2.261 2.162z"></path>
<path d="M32.027 6.778c0 0.598-0.506 1.082-1.13 1.082s-1.132-0.484-1.132-1.082c0-0.597 0.507-1.081 1.132-1.081s1.13 0.484 1.13 1.081z"></path>
<path d="M29.311 8.32l-3.094 7.139-0.776 3.204 0.522 0.207 1.821-2.79 0.433-0.999c-0.338-0.781 0.049-1.676 0.866-1.999l1.794-4.142c-0.61-0.005-1.162-0.241-1.567-0.62z"></path>
<path d="M32.482 8.319c-0.405 0.38-0.957 0.616-1.568 0.621l2.661 6.14 1.567-0.62-2.66-6.14z"></path>
<path d="M31.745 3.535v-2.433c-0-0.448-0.381-0.811-0.848-0.811-0.468 0-0.848 0.362-0.848 0.811l0 2.433h1.696z"></path>
<path d="M30.897 4.616c0.145 0 0.286 0.014 0.423 0.039v-1.12h-0.848v1.12c0.138-0.025 0.279-0.039 0.425-0.039z"></path>
<path d="M19.121 19.764h-2.821v-19.474h2.822c0.623 0 1.128 0.485 1.128 1.082v17.311h-0c-0 0.598-0.505 1.081-1.129 1.081z"></path>
<path d="M18.98 1.913c0.234 0 0.423-0.182 0.423-0.406s-0.19-0.406-0.423-0.406c-0.234 0-0.423 0.182-0.423 0.406s0.189 0.406 0.423 0.406z"></path>
<path d="M22.224 11.786c0 0.223 0.19 0.406 0.423 0.406s0.423-0.182 0.423-0.406c0 0.223 0.19 0.406 0.423 0.406s0.423-0.182 0.423-0.406c0 0.223-0.189 0.406-0.423 0.406s-0.423-0.182-0.423-0.406c0 0.223-0.189 0.406-0.423 0.406s-0.423-0.182-0.423-0.406z"></path>
<path d="M22.789 0.29c-0.311 0-0.564 0.243-0.564 0.542v-0 11.36l0.846 3.246 0.847-3.246v-11.36c0-0.298-0.253-0.541-0.564-0.541l-0.564-0z"></path>
</symbol>
<symbol id="icon-arrow-2-left-long" viewBox="0 0 32 32">
<path d="M28 15.333c0-0.368-0.298-0.667-0.667-0.667v0h-21.333c-0.368 0-0.667 0.298-0.667 0.667s0.298 0.667 0.667 0.667v0h21.333c0.368 0 0.667-0.298 0.667-0.667v0z"></path>
<path d="M11.139 10.195c-0.121-0.121-0.288-0.196-0.472-0.196s-0.351 0.075-0.472 0.196v0l-5.137 5.139 5.137 5.139c0.121 0.121 0.288 0.195 0.472 0.195 0.369 0 0.668-0.299 0.668-0.668 0-0.184-0.075-0.351-0.196-0.472v0l-4.196-4.195 4.196-4.195c0.121-0.121 0.196-0.288 0.196-0.472s-0.075-0.351-0.196-0.472v0z"></path>
</symbol>
<symbol id="icon-arrow-2-right-long" viewBox="0 0 33 32">
<path d="M5.247 15.333c0-0.368 0.298-0.667 0.667-0.667v0h21.333c0.368 0 0.667 0.298 0.667 0.667s-0.298 0.667-0.667 0.667v0h-21.333c-0.368 0-0.667-0.298-0.667-0.667v0z"></path>
<path d="M22.109 10.195c0.121-0.121 0.287-0.195 0.471-0.195s0.351 0.075 0.471 0.195l5.137 5.139-5.137 5.139c-0.121 0.12-0.287 0.195-0.471 0.195-0.368 0-0.667-0.299-0.667-0.667 0-0.184 0.075-0.351 0.196-0.472v0l4.195-4.195-4.195-4.195c-0.121-0.121-0.196-0.288-0.196-0.472s0.075-0.351 0.196-0.472v0z"></path>
</symbol>
<symbol id="icon-check" viewBox="0 0 45 32">
<path d="M6.95 16.374c-0.57-0.518-1.331-0.836-2.166-0.836s-1.596 0.317-2.169 0.838l0.003-0.002c-0.552 0.499-0.897 1.218-0.897 2.018s0.345 1.518 0.895 2.015l0.002 0.002 10.832 10.086c1.2 1.12 3.146 1.114 4.342-0.010l24.397-22.925c0.545-0.499 0.886-1.213 0.886-2.007 0-0.803-0.349-1.525-0.903-2.022l-0.003-0.002c-0.569-0.514-1.327-0.828-2.158-0.828-0.839 0-1.604 0.321-2.178 0.846l0.002-0.002-22.23 20.89-8.656-8.061z"></path>
</symbol>
<symbol id="icon-facebook" viewBox="0 0 17 32">
<path d="M10.336 31.988h-6.89v-15.99h-3.444v-5.512h3.444v-3.308c0-4.495 1.945-7.171 7.466-7.171h4.598v5.512h-2.872c-2.152 0-2.294 0.771-2.294 2.21l-0.008 2.757h5.208l-0.61 5.512h-4.598v15.99z"></path>
</symbol>
<symbol id="icon-Linked-In" viewBox="0 0 32 32">
<path d="M29.619 30.421h-27.238c-1.306 0-2.363-0.926-2.363-2.069v-24.701c0-1.141 1.058-2.067 2.363-2.067h27.238c1.304 0 2.362 0.926 2.362 2.067v24.701c0 1.142-1.058 2.069-2.362 2.069zM5.557 25.67h4.707v-13.019h-4.707v13.019zM7.942 6.376c-1.611 0-2.662 0.971-2.662 2.25 0 1.248 1.021 2.25 2.6 2.25h0.030c1.642 0 2.662-1.002 2.662-2.25-0.029-1.278-1.021-2.25-2.63-2.25zM27.237 18.206c0-4-2.323-5.861-5.419-5.861-2.499 0-3.616 1.262-4.242 2.15v-1.845h-4.707c0.062 1.222 0 13.019 0 13.019h4.707v-7.27c0-0.387 0.030-0.778 0.155-1.054 0.339-0.778 1.115-1.582 2.414-1.582 1.704 0 2.384 1.194 2.384 2.944v6.963h4.707v-7.464zM17.544 14.539l0.032-0.043v0.043h-0.032z"></path>
</symbol>
<symbol id="icon-location" viewBox="0 0 22 32">
<path stroke-linejoin="miter" stroke-linecap="butt" stroke-miterlimit="4" stroke-width="2" d="M3.016 18.5l0.010 0.014 7.974 11.71 7.994-11.74c1.48-2.004 2.15-4.726 1.98-7.44-0.17-2.71-1.174-5.304-2.908-7.064-1.795-1.838-4.297-2.978-7.066-2.978s-5.271 1.14-7.064 2.976l-0.002 0.002-0.918 14.52zM3.016 18.5l-0.010-0.016M3.016 18.498l-0.010-0.014M3.006 18.484c-1.48-2.004-2.15-4.726-1.98-7.44M3.006 18.484l-1.98-7.44M1.026 11.044c0.17-2.71 1.174-5.304 2.908-7.064l-2.908 7.066zM6.476 11.076c0 2.576 2.058 4.694 4.632 4.694 2.572 0 4.63-2.118 4.63-4.694s-2.058-4.692-4.63-4.692c-2.574 0-4.632 2.116-4.632 4.692z"></path>
</symbol>
<symbol id="icon-mail" viewBox="0 0 47 32">
<path stroke-linejoin="miter" stroke-linecap="butt" stroke-miterlimit="4" stroke-width="2.3273" d="M23.68 17.926l-0.015 0.009c-0.090 0.058-0.201 0.093-0.319 0.093-0.001 0-0.003 0-0.004 0h-0.011c-0.008 0-0.017 0.001-0.026 0.001-0.117 0-0.227-0.036-0.317-0.098l-0.001 0.001-19.788-16.768h40.25l-19.773 16.762zM29.193 18.877l14.473 11.959h-40.803l14.505-12.047 2.892 2.449c0.852 0.719 1.949 1.097 3.075 1.097 1.129 0 2.225-0.381 3.078-1.1v-0.003l2.778-2.356zM14.051 15.977l-12.887 10.7v-21.62l12.887 10.921zM45.382 5.146v21.548l-12.867-10.636 12.867-10.909z"></path>
</symbol>
<symbol id="icon-phone" viewBox="0 0 34 32">
<path d="M32.006 25.254l1.982-0.26-0.008-0.066-0.014-0.066-1.96 0.392zM31.53 26.61l1.41 1.42 0.006-0.006-1.414-1.414zM27.022 31.084l-1.408-1.42-0.040 0.040-0.038 0.042 1.486 1.34zM26.226 31.66v0zM25.26 31.966v2h0.142l0.14-0.020-0.282-1.98zM25.056 31.982l0.2 1.992-0.2-1.99zM19.006 30.694v0zM14.276 28.102v0zM8.65 23.356l1.422-1.406-0.020-0.020-1.402 1.426zM4.718 18.88v0zM2.21 14.932v0zM0.040 6.746l-1.98-0.284-0.020 0.14v0.144h2zM0.92 4.984l1.34 1.486 0.076-0.072-1.416-1.414zM5.43 0.474v0zM7.87 0.882l1.77-0.934-0.040-0.072-0.042-0.068-1.688 1.074zM11.498 7.762l-1.77 0.934 0.012 0.024 0.014 0.024 1.744-0.98zM11.090 10.034v0zM9.43 11.694v0zM9.26 12.17h-2v0.188l0.036 0.186 1.964-0.374zM9.87 13.796l1.788-0.894-0.006-0.012-0.006-0.014-1.776 0.92zM13.53 18.476l1.43-1.4-0.014-0.016-0.016-0.016-1.4 1.43zM16.242 20.898v0zM19.446 22.66v0zM19.87 22.746l-0.392 1.96 0.194 0.040h0.198v-2zM20.090 22.694l0.632 1.9v-0.002l-0.632-1.898zM20.31 22.576l1.416 1.414 0.012-0.012-1.428-1.402zM22.242 20.61l-1.328-1.496-0.050 0.046-0.048 0.048 1.426 1.402zM24.582 20.27l-1.030 1.716 0.476 0.286h0.554v-2zM24.616 20.27l1.016-1.72-0.47-0.28h-0.546v2zM31.158 24.136l1.052-1.7-0.016-0.012-0.020-0.010-1.016 1.72zM30.022 25.514c-0.001-0.010-0.001-0.021-0.001-0.032 0-0.058 0.011-0.113 0.030-0.163l-0.001 0.003c0.032-0.094 0.076-0.134 0.066-0.126l2.83 2.828c0.804-0.804 1.194-1.866 1.042-3.028l-3.966 0.518zM30.122 25.19l-4.508 4.474 2.818 2.84 4.508-4.474-2.818-2.84zM25.536 29.746s-0.010 0.012-0.038 0.032c-0.040 0.028-0.086 0.055-0.134 0.078l-0.006 0.002 1.736 3.604c0.52-0.25 1.008-0.588 1.416-1.040l-2.974-2.676zM25.356 29.86c-0.11 0.058-0.238 0.102-0.372 0.125l-0.008 0.001 0.566 3.96c0.546-0.080 1.066-0.248 1.554-0.484l-1.74-3.602zM25.26 29.966c-0.15 0-0.346 0.020-0.402 0.026l0.398 3.98c0.024 0 0.046-0.004 0.064-0.006l0.040-0.004c0 0 0.001 0 0.001 0s0.001 0 0.001 0h-0l-0.028 0.002h-0.074v-4zM24.86 29.992c-0.022 0.004-0.098 0.008-0.244 0.008v4c0.214 0 0.434-0.006 0.64-0.026l-0.398-3.98zM24.616 30c-0.264 0-0.83-0.052-1.782-0.198l-0.606 3.954c0.968 0.148 1.794 0.244 2.388 0.244v-4zM22.834 29.802c-0.74-0.112-1.75-0.41-3.062-0.954l-1.532 3.692c1.466 0.608 2.808 1.034 3.988 1.214l0.606-3.954zM19.772 28.848c-1.24-0.514-2.704-1.31-4.4-2.42l-2.192 3.348c1.83 1.196 3.518 2.128 5.058 2.766l1.532-3.694zM15.372 26.428c-1.612-1.054-3.38-2.536-5.3-4.48l-2.844 2.814c2.056 2.080 4.040 3.762 5.954 5.014l2.19-3.348zM10.052 21.932c-1.522-1.502-2.758-2.912-3.72-4.23l-3.23 2.36c1.118 1.528 2.504 3.1 4.144 4.72l2.808-2.85zM6.334 17.7c-0.803-1.068-1.582-2.277-2.272-3.541l-0.078-0.157-3.546 1.858c0.688 1.318 1.582 2.72 2.664 4.2l3.23-2.358zM3.982 14.004c-0.461-0.834-0.898-1.816-1.251-2.836l-0.041-0.136-3.808 1.224c0.36 1.12 0.886 2.324 1.556 3.604l3.544-1.856zM2.69 11.032c-0.219-0.621-0.418-1.375-0.56-2.149l-0.014-0.095-3.95 0.628c0.134 0.846 0.38 1.798 0.716 2.84l3.808-1.224zM2.116 8.788c-0.073-0.369-0.114-0.792-0.114-1.226 0-0.010 0-0.020 0-0.030v0.002l-3.994-0.22c-0.034 0.616 0.036 1.34 0.158 2.1l3.95-0.626zM2.002 7.534c0.020-0.36 0.038-0.67 0.038-0.788h-4v-0.016l-0.006 0.12-0.026 0.462 3.994 0.222zM2.020 7.028c0.025-0.142 0.068-0.27 0.129-0.387l-0.003 0.007-3.602-1.738c-0.226 0.45-0.396 0.972-0.48 1.522l-0.004 0.030 3.96 0.566zM2.146 6.648c0.025-0.054 0.052-0.1 0.082-0.143l-0.002 0.003 0.032-0.040-2.676-2.972c-0.427 0.392-0.777 0.862-1.028 1.387l-0.012 0.027 3.604 1.74zM2.336 6.398l4.508-4.51-2.828-2.828-4.51 4.508 2.83 2.832zM6.844 1.888c0.004-0.004-0.028 0.030-0.104 0.062-0.066 0.030-0.144 0.049-0.226 0.050h-0v-4c-0.992 0-1.848 0.41-2.5 1.060l2.832 2.828zM6.514 2c-0.159-0.006-0.304-0.059-0.422-0.147l0.002 0.001 2.4-3.2c-0.539-0.408-1.221-0.654-1.96-0.654-0.007 0-0.014 0-0.021 0h0.001v4zM6.094 1.854c0.035 0.028 0.064 0.061 0.087 0.098l0.001 0.002 3.378-2.144c-0.289-0.453-0.643-0.835-1.053-1.146l-0.011-0.008-2.4 3.2zM6.1 1.814l3.628 6.88 3.54-1.864-3.628-6.88-3.54 1.862zM9.754 8.744c-0.020-0.038-0.034-0.082-0.040-0.128l-0-0.002c-0.010-0.056-0.002-0.086-0.004-0.076l3.914 0.824c0.055-0.237 0.086-0.509 0.086-0.788 0-0.658-0.174-1.276-0.48-1.809l0.009 0.018-3.486 1.96zM9.71 8.538c-0.004 0.025-0.011 0.047-0.021 0.068l0.001-0.002c-0.004 0.006-0.008 0.012-0.014 0.016l-0 0 2.828 2.828c0.584-0.584 0.954-1.3 1.12-2.086l-3.914-0.824zM9.676 8.618l-1.66 1.662 2.828 2.83 1.66-1.662-2.828-2.828zM8.016 10.28c-0.366 0.366-0.528 0.78-0.602 1.002l3.794 1.266c-0.086 0.218-0.209 0.405-0.364 0.56l0-0-2.828-2.828zM7.414 11.282c-0.068 0.202-0.154 0.518-0.154 0.888h4c-0 0.135-0.019 0.265-0.054 0.388l0.002-0.010-3.794-1.268zM7.294 12.542c0.14 0.728 0.43 1.46 0.8 2.176l3.552-1.842c-0.177-0.311-0.322-0.671-0.414-1.051l-0.006-0.029-3.93 0.748zM8.082 14.692c0.34 0.68 0.826 1.44 1.422 2.26l3.24-2.346c-0.375-0.494-0.735-1.051-1.052-1.635l-0.034-0.069-3.576 1.79zM9.504 16.952c0.656 0.906 1.544 1.892 2.628 2.952l2.798-2.86c-0.996-0.972-1.712-1.784-2.186-2.438l-3.24 2.348zM12.102 19.872c1.060 1.086 2.050 1.978 2.964 2.642l2.354-3.232c-0.668-0.488-1.486-1.212-2.46-2.206l-2.86 2.796zM15.066 22.514c0.828 0.604 1.586 1.098 2.25 1.436l1.82-3.56c-0.658-0.361-1.219-0.728-1.75-1.133l0.034 0.025-2.354 3.232zM17.316 23.95c0.56 0.286 1.172 0.56 1.74 0.672l0.78-3.922c0.028 0.004-0.020-0.002-0.16-0.060-0.227-0.094-0.404-0.178-0.578-0.27l0.038 0.018-1.82 3.562zM19.054 24.622l0.424 0.084 0.784-3.92-0.424-0.086-0.784 3.92zM19.87 24.746c0.402 0 0.75-0.12 0.852-0.154l-1.262-3.792c-0.014 0.004 0.006-0.004 0.052-0.014 0.1-0.026 0.216-0.040 0.334-0.040 0.009 0 0.018 0 0.027 0l-0.001-0v4zM20.724 24.592c0.22-0.074 0.636-0.236 1-0.6l-2.826-2.832c0.155-0.155 0.342-0.278 0.549-0.36l0.011-0.004 1.268 3.794zM21.738 23.978l1.932-1.966-2.854-2.804-1.932 1.966 2.854 2.804zM23.572 22.106c0.011-0.011 0.023-0.021 0.035-0.029l0.001-0.001c0.004 0 0.006-0.002 0.006-0.004h0.008c0.006-0.002 0.020-0.004 0.044-0.004v-4c-1.034 0-1.98 0.36-2.752 1.046l2.658 2.992zM23.666 22.066c0.080 0 0.1 0.008 0.084 0.004-0.075-0.019-0.141-0.048-0.201-0.086l0.003 0.002 2.060-3.43c-0.648-0.388-1.354-0.488-1.946-0.488v4zM24.582 22.272h0.034v-4h-0.034v4zM23.598 21.992l6.542 3.866 2.036-3.444-6.544-3.866-2.034 3.446zM30.106 25.836c0.066 0.040 0.060 0.052 0.026 0.008-0.043-0.056-0.073-0.122-0.088-0.195l-0-0.003 3.922-0.784c-0.22-1.108-0.918-1.908-1.756-2.426l-2.106 3.4z"></path>
</symbol>
<symbol id="icon-pininterest" viewBox="0 0 24 32">
<path d="M12.504 0c-8.312 0-12.502 5.932-12.502 10.88 0 2.995 1.139 5.659 3.582 6.653 0.401 0.163 0.76 0.005 0.876-0.436 0.081-0.305 0.273-1.076 0.357-1.398 0.118-0.436 0.072-0.589-0.251-0.97-0.706-0.827-1.155-1.898-1.155-3.416 0-4.401 3.308-8.34 8.613-8.34 4.697 0 7.277 2.858 7.277 6.673 0 5.022-2.232 9.26-5.546 9.26-1.829 0-3.198-1.507-2.76-3.355 0.527-2.205 1.544-4.586 1.544-6.179 0-1.425-0.768-2.614-2.36-2.614-1.869 0-3.372 1.927-3.372 4.507 0 1.645 0.557 2.757 0.557 2.757l-2.25 9.489c-0.669 2.816-0.099 6.269-0.052 6.619 0.029 0.205 0.295 0.254 0.416 0.099 0.172-0.226 2.4-2.963 3.158-5.699 0.214-0.775 1.229-4.787 1.229-4.787 0.608 1.154 2.385 2.171 4.273 2.171 5.624 0 9.438-5.105 9.438-11.936 0-5.165-4.394-9.977-11.074-9.977z"></path>
</symbol>
<symbol id="icon-twitter" viewBox="0 0 41 32">
<path d="M39.544 3.569c-1.358 0.58-2.934 1.001-4.581 1.188l-0.078 0.007c1.675-0.941 2.961-2.432 3.567-4.205-1.488 0.839-3.216 1.48-5.048 1.828l-0.106 0.017c-1.507-1.485-3.577-2.402-5.861-2.402-0.021 0-0.041 0-0.062 0l0.003-0c-4.48 0-8.115 3.405-8.115 7.603 0 0.597 0.072 1.178 0.211 1.734-6.743-0.318-12.721-3.345-16.723-7.944-0.689 1.085-1.097 2.406-1.097 3.823 0 0 0 0 0 0v0c0 2.635 1.432 4.966 3.608 6.328-1.349-0.040-2.608-0.388-3.721-0.975l0.047 0.022v0.098c0 3.684 2.795 6.756 6.507 7.454-0.643 0.167-1.382 0.264-2.142 0.264-0.537 0-1.063-0.048-1.574-0.14l0.054 0.008c1.032 3.017 4.028 5.218 7.578 5.28-2.766 2.033-6.238 3.253-9.996 3.253-0.028 0-0.057-0-0.085-0l0.004 0c-0.655 0-1.301-0.036-1.935-0.105 3.533 2.146 7.805 3.417 12.373 3.417 0.022 0 0.045-0 0.067-0h-0.004c14.923 0 23.083-11.588 23.083-21.634 0-0.331-0.009-0.657-0.024-0.984 1.588-1.081 2.929-2.386 4.017-3.888l0.032-0.047z"></path>
</symbol>
<symbol id="icon-burger-menu" viewBox="0 0 32 32">
<path stroke-linejoin="round" stroke-linecap="round" stroke-miterlimit="4" stroke-width="2.5" d="M4 16h24M4 8h24M4 24h24"></path>
</symbol>
<symbol id="icon-x-close" viewBox="0 0 32 32">
<path stroke-linejoin="round" stroke-linecap="round" stroke-miterlimit="4" stroke-width="2.6667" d="M24 8l-16 16M8 8l16 16"></path>
</symbol>
</defs>
</svg>
