<svg xmlns="http://www.w3.org/2000/svg" aria-hidden="true" style="position:absolute;width:0;height:0;overflow:hidden"><defs><symbol id="icon-logo-up" viewBox="0 0 53 32"><path d="m34.007 16.079.974 2.248c.18.414.676.61 1.108.438a.797.797 0 0 0 .459-1.059l-.974-2.247-1.568.62zm.65 1.499zm-2.705-6.243zm1.206-4.557c0 1.194-1.012 2.163-2.261 2.163-1.25 0-2.262-.968-2.262-2.163s1.013-2.162 2.262-2.162c1.248 0 2.261.968 2.261 2.162z"/><path d="M32.027 6.778c0 .598-.506 1.082-1.13 1.082s-1.132-.484-1.132-1.082c0-.597.507-1.081 1.132-1.081s1.13.484 1.13 1.081zM29.311 8.32l-3.094 7.139-.776 3.204.522.207 1.821-2.79.433-.999c-.338-.781.049-1.676.866-1.999l1.794-4.142a2.315 2.315 0 0 1-1.567-.62zm3.171-.001c-.405.38-.957.616-1.568.621l2.661 6.14 1.567-.62-2.66-6.14zm-.737-4.784V1.102c0-.448-.381-.811-.848-.811-.468 0-.848.362-.848.811v2.433h1.696z"/><path d="M30.897 4.616c.145 0 .286.014.423.039v-1.12h-.848v1.12c.138-.025.279-.039.425-.039zM19.121 19.764H16.3V.29h2.822c.623 0 1.128.485 1.128 1.082v17.311c0 .598-.505 1.081-1.129 1.081z"/><path d="M18.98 1.913c.234 0 .423-.182.423-.406s-.19-.406-.423-.406c-.234 0-.423.182-.423.406s.189.406.423.406zm3.244 9.873zM22.789.29a.554.554 0 0 0-.564.542v11.36l.846 3.246.847-3.246V.832a.554.554 0 0 0-.564-.541h-.564z"/></symbol><symbol id="icon-arrow-2-left-long" viewBox="0 0 32 32"><path d="M28 15.333a.667.667 0 0 0-.667-.667H6A.667.667 0 1 0 6 16h21.333a.667.667 0 0 0 .667-.667z"/><path d="M11.139 10.195a.666.666 0 0 0-.944 0l-5.137 5.139 5.137 5.139a.668.668 0 0 0 .944-.945l-4.196-4.195 4.196-4.195a.666.666 0 0 0 0-.944z"/></symbol><symbol id="icon-arrow-2-right-long" viewBox="0 0 33 32"><path d="M5.247 15.333c0-.368.298-.667.667-.667h21.333a.667.667 0 1 1 0 1.334H5.914a.667.667 0 0 1-.667-.667z"/><path d="M22.109 10.195a.663.663 0 0 1 .942 0l5.137 5.139-5.137 5.139a.667.667 0 1 1-.942-.944l4.195-4.195-4.195-4.195a.666.666 0 0 1 0-.944z"/></symbol><symbol id="icon-check" viewBox="0 0 45 32"><path d="M6.95 16.374c-.57-.518-1.331-.836-2.166-.836s-1.596.317-2.169.838l.003-.002c-.552.499-.897 1.218-.897 2.018s.345 1.518.895 2.015l.002.002L13.45 30.495c1.2 1.12 3.146 1.114 4.342-.01L42.189 7.56a2.712 2.712 0 0 0-.017-4.029l-.003-.002a3.21 3.21 0 0 0-2.158-.828c-.839 0-1.604.321-2.178.846l.002-.002-22.23 20.89-8.656-8.061z"/></symbol><symbol id="icon-facebook" viewBox="0 0 17 32"><path d="M10.336 31.988h-6.89v-15.99H.002v-5.512h3.444V7.178c0-4.495 1.945-7.171 7.466-7.171h4.598v5.512h-2.872c-2.152 0-2.294.771-2.294 2.21l-.008 2.757h5.208l-.61 5.512h-4.598v15.99z"/></symbol><symbol id="icon-Linked-In" viewBox="0 0 32 32"><path d="M29.619 30.421H2.381c-1.306 0-2.363-.926-2.363-2.069V3.651c0-1.141 1.058-2.067 2.363-2.067h27.238c1.304 0 2.362.926 2.362 2.067v24.701c0 1.142-1.058 2.069-2.362 2.069zM5.557 25.67h4.707V12.651H5.557V25.67zM7.942 6.376c-1.611 0-2.662.971-2.662 2.25 0 1.248 1.021 2.25 2.6 2.25h.03c1.642 0 2.662-1.002 2.662-2.25-.029-1.278-1.021-2.25-2.63-2.25zm19.295 11.83c0-4-2.323-5.861-5.419-5.861-2.499 0-3.616 1.262-4.242 2.15V12.65h-4.707c.062 1.222 0 13.019 0 13.019h4.707v-7.27c0-.387.03-.778.155-1.054.339-.778 1.115-1.582 2.414-1.582 1.704 0 2.384 1.194 2.384 2.944v6.963h4.707v-7.464zm-9.693-3.667.032-.043v.043h-.032z"/></symbol><symbol id="icon-location" viewBox="0 0 22 32"><path stroke-width="2" d="m3.016 18.5.01.014L11 30.224l7.994-11.74c1.48-2.004 2.15-4.726 1.98-7.44-.17-2.71-1.174-5.304-2.908-7.064C16.271 2.142 13.769 1.002 11 1.002s-5.271 1.14-7.064 2.976l-.002.002-.918 14.52zm0 0-.01-.016m.01.014-.01-.014m0 0c-1.48-2.004-2.15-4.726-1.98-7.44m1.98 7.44-1.98-7.44m0 0C1.196 8.334 2.2 5.74 3.934 3.98l-2.908 7.066zm5.45.032c0 2.576 2.058 4.694 4.632 4.694 2.572 0 4.63-2.118 4.63-4.694s-2.058-4.692-4.63-4.692c-2.574 0-4.632 2.116-4.632 4.692z"/></symbol><symbol id="icon-mail" viewBox="0 0 47 32"><path stroke-width="2.3273" d="m23.68 17.926-.015.009a.591.591 0 0 1-.319.093h-.015l-.026.001a.558.558 0 0 1-.317-.098l-.001.001L3.199 1.164h40.25L23.676 17.926zm5.513.951 14.473 11.959H2.863l14.505-12.047 2.892 2.449c.852.719 1.949 1.097 3.075 1.097a4.77 4.77 0 0 0 3.078-1.1v-.003l2.778-2.356zm-15.142-2.9-12.887 10.7V5.057l12.887 10.921zM45.382 5.146v21.548L32.515 16.058 45.382 5.149z"/></symbol><symbol id="icon-phone" viewBox="0 0 34 32"><path d="m32.006 25.254 1.982-.26-.008-.066-.014-.066-1.96.392zm-.476 1.356 1.41 1.42.006-.006-1.414-1.414zm-4.508 4.474-1.408-1.42-.04.04-.038.042 1.486 1.34zm-.796.576zm-.966.306v2h.142l.14-.02-.282-1.98zm-.204.016.2 1.992-.2-1.99zm-6.05-1.288zm-4.73-2.592zM8.65 23.356l1.422-1.406-.02-.02-1.402 1.426zM4.718 18.88zM2.21 14.932zM.04 6.746l-1.98-.284-.02.14v.144h2zm.88-1.762L2.26 6.47l.076-.072L.92 4.984zM5.43.474zm2.44.408 1.77-.934-.04-.072-.042-.068L7.87.882zm3.628 6.88-1.77.934.012.024.014.024 1.744-.98zm-.408 2.272zm-1.66 1.66zm-.17.476h-2v.188l.036.186 1.964-.374zm.61 1.626 1.788-.894-.006-.012-.006-.014-1.776.92zm3.66 4.68 1.43-1.4-.014-.016-.016-.016-1.4 1.43zm2.712 2.422zm3.204 1.762zm.424.086-.392 1.96.194.04h.198v-2zm.22-.052.632 1.9v-.002l-.632-1.898zm.22-.118 1.416 1.414.012-.012-1.428-1.402zm1.932-1.966-1.328-1.496-.05.046-.048.048 1.426 1.402zm2.34-.34-1.03 1.716.476.286h.554v-2zm.034 0 1.016-1.72-.47-.28h-.546v2zm6.542 3.866 1.052-1.7-.016-.012-.02-.01-1.016 1.72zm-1.136 1.378-.001-.032c0-.058.011-.113.03-.163l-.001.003c.032-.094.076-.134.066-.126l2.83 2.828c.804-.804 1.194-1.866 1.042-3.028l-3.966.518zm.1-.324-4.508 4.474 2.818 2.84 4.508-4.474-2.818-2.84zm-4.586 4.556s-.01.012-.038.032a.961.961 0 0 1-.134.078l-.006.002 1.736 3.604a4.533 4.533 0 0 0 1.416-1.04l-2.974-2.676zm-.18.114c-.11.058-.238.102-.372.125l-.008.001.566 3.96a5.345 5.345 0 0 0 1.554-.484l-1.74-3.602zm-.096.106c-.15 0-.346.02-.402.026l.398 3.98c.024 0 .046-.004.064-.006l.04-.004h.002l-.028.002h-.074v-4zm-.4.026a2.11 2.11 0 0 1-.244.008v4c.214 0 .434-.006.64-.026l-.398-3.98zm-.244.008c-.264 0-.83-.052-1.782-.198l-.606 3.954c.968.148 1.794.244 2.388.244v-4zm-1.782-.198c-.74-.112-1.75-.41-3.062-.954L18.24 32.54c1.466.608 2.808 1.034 3.988 1.214l.606-3.954zm-3.062-.954c-1.24-.514-2.704-1.31-4.4-2.42l-2.192 3.348c1.83 1.196 3.518 2.128 5.058 2.766l1.532-3.694zm-4.4-2.42c-1.612-1.054-3.38-2.536-5.3-4.48l-2.844 2.814c2.056 2.08 4.04 3.762 5.954 5.014l2.19-3.348zm-5.32-4.496c-1.522-1.502-2.758-2.912-3.72-4.23l-3.23 2.36c1.118 1.528 2.504 3.1 4.144 4.72l2.808-2.85zM6.334 17.7a29.39 29.39 0 0 1-2.272-3.541l-.078-.157L.438 15.86c.688 1.318 1.582 2.72 2.664 4.2l3.23-2.358zm-2.352-3.696a18.434 18.434 0 0 1-1.251-2.836l-.041-.136-3.808 1.224c.36 1.12.886 2.324 1.556 3.604l3.544-1.856zM2.69 11.032a14.53 14.53 0 0 1-.56-2.149l-.014-.095-3.95.628c.134.846.38 1.798.716 2.84l3.808-1.224zm-.574-2.244a6.428 6.428 0 0 1-.114-1.226v-.03.002l-3.994-.22c-.034.616.036 1.34.158 2.1l3.95-.626zm-.114-1.254c.02-.36.038-.67.038-.788h-4V6.73l-.006.12-.026.462 3.994.222zm.018-.506c.025-.142.068-.27.129-.387l-.003.007-3.602-1.738c-.226.45-.396.972-.48 1.522l-.004.03 3.96.566zm.126-.38a.924.924 0 0 1 .082-.143l-.002.003.032-.04-2.676-2.972a4.545 4.545 0 0 0-1.028 1.387l-.012.027 3.604 1.74zm.19-.25 4.508-4.51L4.016-.94l-4.51 4.508L2.336 6.4zm4.508-4.51c.004-.004-.028.03-.104.062a.568.568 0 0 1-.226.05v-4c-.992 0-1.848.41-2.5 1.06l2.832 2.828zM6.514 2a.749.749 0 0 1-.422-.147l.002.001 2.4-3.2A3.243 3.243 0 0 0 6.534-2h-.021.001v4zm-.42-.146a.386.386 0 0 1 .087.098l.001.002L9.56-.19a4.394 4.394 0 0 0-1.053-1.146l-.011-.008-2.4 3.2zm.006-.04 3.628 6.88 3.54-1.864L9.64-.05 6.1 1.812zm3.654 6.93a.383.383 0 0 1-.04-.128v-.002c-.01-.056-.002-.086-.004-.076l3.914.824c.055-.237.086-.509.086-.788 0-.658-.174-1.276-.48-1.809l.009.018-3.486 1.96zm-.044-.206a.245.245 0 0 1-.021.068l.001-.002a.054.054 0 0 1-.014.016l2.828 2.828c.584-.584.954-1.3 1.12-2.086L9.71 8.538zm-.034.08-1.66 1.662 2.828 2.83 1.66-1.662L9.676 8.62zm-1.66 1.662c-.366.366-.528.78-.602 1.002l3.794 1.266a1.63 1.63 0 0 1-.364.56L8.016 10.28zm-.602 1.002a2.801 2.801 0 0 0-.154.888h4c0 .135-.019.265-.054.388l.002-.01-3.794-1.268zm-.12 1.26c.14.728.43 1.46.8 2.176l3.552-1.842a4.093 4.093 0 0 1-.414-1.051l-.006-.029-3.93.748zm.788 2.15c.34.68.826 1.44 1.422 2.26l3.24-2.346a12.94 12.94 0 0 1-1.052-1.635l-.034-.069-3.576 1.79zm1.422 2.26c.656.906 1.544 1.892 2.628 2.952l2.798-2.86c-.996-.972-1.712-1.784-2.186-2.438l-3.24 2.348zm2.598 2.92c1.06 1.086 2.05 1.978 2.964 2.642l2.354-3.232c-.668-.488-1.486-1.212-2.46-2.206l-2.86 2.796zm2.964 2.642c.828.604 1.586 1.098 2.25 1.436l1.82-3.56a13.68 13.68 0 0 1-1.75-1.133l.034.025-2.354 3.232zm2.25 1.436c.56.286 1.172.56 1.74.672l.78-3.922c.028.004-.02-.002-.16-.06a6.562 6.562 0 0 1-.578-.27l.038.018-1.82 3.562zm1.738.672.424.084.784-3.92-.424-.086-.784 3.92zm.816.124c.402 0 .75-.12.852-.154L19.46 20.8c-.014.004.006-.004.052-.014.1-.026.216-.04.334-.04h.027-.001v4zm.854-.154c.22-.074.636-.236 1-.6l-2.826-2.832a1.62 1.62 0 0 1 .549-.36l.011-.004 1.268 3.794zm1.014-.614 1.932-1.966-2.854-2.804-1.932 1.966 2.854 2.804zm1.834-1.872a.234.234 0 0 1 .035-.029l.001-.001c.004 0 .006-.002.006-.004h.008a.164.164 0 0 1 .044-.004v-4c-1.034 0-1.98.36-2.752 1.046l2.658 2.992zm.094-.04c.08 0 .1.008.084.004a.686.686 0 0 1-.201-.086l.003.002 2.06-3.43c-.648-.388-1.354-.488-1.946-.488v4zm.916.206h.034v-4h-.034v4zm-.984-.28 6.542 3.866 2.036-3.444-6.544-3.866-2.034 3.446zm6.508 3.844c.066.04.06.052.026.008a.475.475 0 0 1-.088-.195v-.003l3.922-.784c-.22-1.108-.918-1.908-1.756-2.426l-2.106 3.4z"/></symbol><symbol id="icon-pininterest" viewBox="0 0 24 32"><path d="M12.504 0C4.192 0 .002 5.932.002 10.88c0 2.995 1.139 5.659 3.582 6.653.401.163.76.005.876-.436.081-.305.273-1.076.357-1.398.118-.436.072-.589-.251-.97-.706-.827-1.155-1.898-1.155-3.416 0-4.401 3.308-8.34 8.613-8.34 4.697 0 7.277 2.858 7.277 6.673 0 5.022-2.232 9.26-5.546 9.26-1.829 0-3.198-1.507-2.76-3.355.527-2.205 1.544-4.586 1.544-6.179 0-1.425-.768-2.614-2.36-2.614-1.869 0-3.372 1.927-3.372 4.507 0 1.645.557 2.757.557 2.757l-2.25 9.489c-.669 2.816-.099 6.269-.052 6.619.029.205.295.254.416.099.172-.226 2.4-2.963 3.158-5.699.214-.775 1.229-4.787 1.229-4.787.608 1.154 2.385 2.171 4.273 2.171 5.624 0 9.438-5.105 9.438-11.936 0-5.165-4.394-9.977-11.074-9.977z"/></symbol><symbol id="icon-twitter" viewBox="0 0 41 32"><path d="M39.544 3.569a16.553 16.553 0 0 1-4.581 1.188l-.078.007c1.675-.941 2.961-2.432 3.567-4.205a16.7 16.7 0 0 1-5.048 1.828l-.106.017A8.325 8.325 0 0 0 27.437.002h-.062.003c-4.48 0-8.115 3.405-8.115 7.603 0 .597.072 1.178.211 1.734-6.743-.318-12.721-3.345-16.723-7.944a7.132 7.132 0 0 0-1.097 3.823c0 2.635 1.432 4.966 3.608 6.328a8.482 8.482 0 0 1-3.721-.975l.047.022v.098c0 3.684 2.795 6.756 6.507 7.454a8.877 8.877 0 0 1-3.716.124l.054.008c1.032 3.017 4.028 5.218 7.578 5.28a16.855 16.855 0 0 1-9.996 3.253H1.93h.004c-.655 0-1.301-.036-1.935-.105 3.533 2.146 7.805 3.417 12.373 3.417h.067-.004c14.923 0 23.083-11.588 23.083-21.634a21.4 21.4 0 0 0-.024-.984 16.142 16.142 0 0 0 4.017-3.888l.032-.047z"/></symbol><symbol id="icon-burger-menu" viewBox="0 0 32 32"><path stroke-linecap="round" stroke-linejoin="round" stroke-width="2.5" d="M4 16h24M4 8h24M4 24h24"/></symbol><symbol id="icon-x-close" viewBox="0 0 32 32"><path stroke-linecap="round" stroke-linejoin="round" stroke-width="2.6667" d="M24 8 8 24M8 8l16 16"/></symbol></defs></svg>